<svg width="512" height="512" viewBox="0 0 512 512" fill="none" xmlns="http://www.w3.org/2000/svg">
<rect width="512" height="512" fill="white"/>
<path d="M410.496 387.937L410.568 388.5H383.5V186L384.496 185.937L410.496 387.937Z" fill="#B69DF8" stroke="white"/>
<path d="M101.504 387.937L101.432 388.5H128.5V186L127.504 185.937L101.504 387.937Z" fill="#B69DF8" stroke="white"/>
<path d="M352.731 372.877C356.937 340.328 404.063 340.328 408.269 372.877L409.76 384.411C411.924 401.161 398.879 416 381.991 416H379.009C362.121 416 349.076 401.161 351.24 384.411L352.731 372.877Z" fill="#B69DF8"/>
<path d="M103.731 372.877C107.937 340.328 155.063 340.328 159.269 372.877L160.76 384.411C162.924 401.161 149.879 416 132.991 416H130.009C113.121 416 100.076 401.161 102.24 384.411L103.731 372.877Z" fill="#B69DF8"/>
<circle cx="255" cy="160" r="80" fill="#B69DF8"/>
<circle cx="255.5" cy="165.5" r="53.5" fill="white"/>
<mask id="path-7-inside-1_28_3" fill="white">
<rect x="128" y="160" width="256" height="256" rx="28"/>
</mask>
<rect x="128" y="160" width="256" height="256" rx="28" fill="#B69DF8" stroke="#B69DF8" stroke-width="86" mask="url(#path-7-inside-1_28_3)"/>
<path d="M232.16 299.878L248.956 282.747C252.333 279.374 257.577 279.633 260.598 282.747C264.33 286.593 272.951 295.405 277.572 299.878C280.689 302.896 280.327 308.399 277.572 311.151C275.937 312.784 265.575 323.548 260.598 328.726C256.048 332.844 250.941 330.442 248.956 328.726L232.16 311.151C228.961 308.222 229.228 303.162 232.16 299.878Z" fill="white"/>
<path d="M224.927 246.433C221.906 243.32 216.663 243.061 213.286 246.433C196.003 263.745 161.839 297.919 160.089 299.878C157.219 303.089 157.39 308.596 160.089 311.151C161.438 312.428 175.714 326.769 177.964 328.726C180.662 331.073 185.272 331.635 188.419 328.726L223.232 293.648L241.638 275.102C241.742 274.997 241.83 274.909 241.901 274.837C244.656 272.086 245.019 266.583 241.901 263.565C237.28 259.091 228.66 250.28 224.927 246.433Z" fill="white"/>
<path d="M284.917 246.433C287.945 243.32 293.201 243.061 296.586 246.433C313.909 263.745 348.152 297.919 349.907 299.878C352.783 303.089 352.611 308.596 349.907 311.151C348.554 312.428 334.245 326.769 331.989 328.726C329.285 331.073 324.665 331.635 321.51 328.726L286.616 293.648L268.167 275.102C268.063 274.997 267.975 274.909 267.903 274.837C265.142 272.086 264.779 266.583 267.903 263.565C272.535 259.091 281.176 250.28 284.917 246.433Z" fill="white"/>
<path d="M241.901 274.837C244.656 272.086 245.019 266.583 241.901 263.565C237.28 259.091 228.66 250.28 224.927 246.433C221.906 243.32 216.663 243.061 213.286 246.433C196.003 263.745 161.839 297.919 160.089 299.878C157.219 303.089 157.39 308.596 160.089 311.151C161.438 312.428 175.714 326.769 177.964 328.726C180.662 331.073 185.272 331.635 188.419 328.726L223.232 293.648L241.638 275.102M241.901 274.837L241.638 275.102M241.901 274.837C241.83 274.909 241.742 274.997 241.638 275.102M232.16 299.878L248.956 282.747C252.333 279.374 257.577 279.633 260.598 282.747C264.33 286.593 272.951 295.405 277.572 299.878C280.689 302.896 280.327 308.399 277.572 311.151C275.937 312.784 265.575 323.548 260.598 328.726C256.048 332.844 250.941 330.442 248.956 328.726L232.16 311.151C228.961 308.222 229.228 303.162 232.16 299.878ZM296.586 246.433C293.201 243.061 287.945 243.32 284.917 246.433C281.176 250.28 272.535 259.091 267.903 263.565C264.779 266.583 265.142 272.086 267.903 274.837C267.975 274.909 268.063 274.997 268.167 275.102L286.616 293.648L321.51 328.726C324.665 331.635 329.285 331.073 331.989 328.726C334.245 326.769 348.554 312.428 349.907 311.151C352.611 308.596 352.783 303.089 349.907 299.878C348.152 297.919 313.909 263.745 296.586 246.433Z" stroke="#B69DF8"/>
<rect x="352" y="406" width="32" height="10" fill="#B69DF8"/>
<rect x="128" y="406" width="32" height="10" fill="#B69DF8"/>
</svg>
